<mxfile host="app.diagrams.net" modified="2024-05-01T16:45:18.332Z" agent="Mozilla/5.0 (Windows NT 10.0; Win64; x64) AppleWebKit/537.36 (KHTML, like Gecko) Chrome/124.0.0.0 Safari/537.36" etag="LciQ_ned6is0tUUX_NGw" version="24.2.9" type="device">
  <diagram name="Page-1" id="gSkTsYvhaRIpISxda5lY">
    <mxGraphModel dx="1461" dy="652" grid="1" gridSize="10" guides="1" tooltips="1" connect="1" arrows="1" fold="1" page="1" pageScale="1" pageWidth="850" pageHeight="1100" math="0" shadow="0">
      <root>
        <mxCell id="0" />
        <mxCell id="1" parent="0" />
        <mxCell id="5ee0NKRuFg4Ddq5mnpHn-1" value=":Pharmacist" style="shape=umlLifeline;perimeter=lifelinePerimeter;whiteSpace=wrap;html=1;container=1;dropTarget=0;collapsible=0;recursiveResize=0;outlineConnect=0;portConstraint=eastwest;newEdgeStyle={&quot;curved&quot;:0,&quot;rounded&quot;:0};" vertex="1" parent="1">
          <mxGeometry x="160" y="70" width="100" height="300" as="geometry" />
        </mxCell>
        <mxCell id="5ee0NKRuFg4Ddq5mnpHn-3" value="" style="html=1;points=[[0,0,0,0,5],[0,1,0,0,-5],[1,0,0,0,5],[1,1,0,0,-5]];perimeter=orthogonalPerimeter;outlineConnect=0;targetShapes=umlLifeline;portConstraint=eastwest;newEdgeStyle={&quot;curved&quot;:0,&quot;rounded&quot;:0};" vertex="1" parent="5ee0NKRuFg4Ddq5mnpHn-1">
          <mxGeometry x="45" y="70" width="10" height="80" as="geometry" />
        </mxCell>
        <mxCell id="5ee0NKRuFg4Ddq5mnpHn-7" value="" style="html=1;points=[[0,0,0,0,5],[0,1,0,0,-5],[1,0,0,0,5],[1,1,0,0,-5]];perimeter=orthogonalPerimeter;outlineConnect=0;targetShapes=umlLifeline;portConstraint=eastwest;newEdgeStyle={&quot;curved&quot;:0,&quot;rounded&quot;:0};" vertex="1" parent="5ee0NKRuFg4Ddq5mnpHn-1">
          <mxGeometry x="45" y="180" width="10" height="80" as="geometry" />
        </mxCell>
        <mxCell id="5ee0NKRuFg4Ddq5mnpHn-2" value=":Inventory" style="shape=umlLifeline;perimeter=lifelinePerimeter;whiteSpace=wrap;html=1;container=1;dropTarget=0;collapsible=0;recursiveResize=0;outlineConnect=0;portConstraint=eastwest;newEdgeStyle={&quot;curved&quot;:0,&quot;rounded&quot;:0};" vertex="1" parent="1">
          <mxGeometry x="460" y="70" width="100" height="310" as="geometry" />
        </mxCell>
        <mxCell id="5ee0NKRuFg4Ddq5mnpHn-4" value="" style="html=1;points=[[0,0,0,0,5],[0,1,0,0,-5],[1,0,0,0,5],[1,1,0,0,-5]];perimeter=orthogonalPerimeter;outlineConnect=0;targetShapes=umlLifeline;portConstraint=eastwest;newEdgeStyle={&quot;curved&quot;:0,&quot;rounded&quot;:0};" vertex="1" parent="5ee0NKRuFg4Ddq5mnpHn-2">
          <mxGeometry x="45" y="70" width="10" height="180" as="geometry" />
        </mxCell>
        <mxCell id="5ee0NKRuFg4Ddq5mnpHn-5" value="check inventory" style="html=1;verticalAlign=bottom;endArrow=block;curved=0;rounded=0;" edge="1" parent="1">
          <mxGeometry width="80" relative="1" as="geometry">
            <mxPoint x="215" y="170" as="sourcePoint" />
            <mxPoint x="509.5" y="170" as="targetPoint" />
          </mxGeometry>
        </mxCell>
        <mxCell id="5ee0NKRuFg4Ddq5mnpHn-6" value="return status on the equipment and medicine" style="html=1;verticalAlign=bottom;endArrow=open;dashed=1;endSize=8;curved=0;rounded=0;" edge="1" parent="1">
          <mxGeometry relative="1" as="geometry">
            <mxPoint x="509.5" y="200" as="sourcePoint" />
            <mxPoint x="209.5" y="200" as="targetPoint" />
          </mxGeometry>
        </mxCell>
        <mxCell id="5ee0NKRuFg4Ddq5mnpHn-8" value="update inventory" style="html=1;verticalAlign=bottom;endArrow=block;curved=0;rounded=0;" edge="1" parent="1">
          <mxGeometry width="80" relative="1" as="geometry">
            <mxPoint x="209.5" y="260" as="sourcePoint" />
            <mxPoint x="509.5" y="260" as="targetPoint" />
          </mxGeometry>
        </mxCell>
        <mxCell id="5ee0NKRuFg4Ddq5mnpHn-9" value="return confirmation if changes were successful" style="html=1;verticalAlign=bottom;endArrow=open;dashed=1;endSize=8;curved=0;rounded=0;" edge="1" parent="1">
          <mxGeometry relative="1" as="geometry">
            <mxPoint x="510" y="280" as="sourcePoint" />
            <mxPoint x="210" y="280" as="targetPoint" />
          </mxGeometry>
        </mxCell>
        <mxCell id="5ee0NKRuFg4Ddq5mnpHn-10" value="return status on the equipment and medicine" style="html=1;verticalAlign=bottom;endArrow=open;dashed=1;endSize=8;curved=0;rounded=0;exitX=0;exitY=1;exitDx=0;exitDy=-5;exitPerimeter=0;" edge="1" parent="1" source="5ee0NKRuFg4Ddq5mnpHn-4" target="5ee0NKRuFg4Ddq5mnpHn-7">
          <mxGeometry relative="1" as="geometry">
            <mxPoint x="460" y="340" as="sourcePoint" />
            <mxPoint x="380" y="340" as="targetPoint" />
          </mxGeometry>
        </mxCell>
      </root>
    </mxGraphModel>
  </diagram>
</mxfile>
